<svg xmlns="http://www.w3.org/2000/svg" width="47" height="62"><path fill="#fff" d="M21.004 40.526a3.82 3.82 0 014.993 0c.088.076 6.989 5.927 8.822 7.897l.06.065c1.22 1.318.285 3.46-1.507 3.46H13.628c-1.792 0-2.726-2.142-1.507-3.46l.06-.065c1.834-1.97 8.734-7.82 8.823-7.897zM32.056 31c0 .685.314 1.351.86 1.827.595.522 1.281 1.099 2.007 1.71 2.352 1.977 5.278 4.439 7.614 7.087a2.43 2.43 0 01-.205 3.42 2.403 2.403 0 01-3.403-.207c-2.097-2.378-4.755-4.614-7.1-6.586a150.81 150.81 0 01-2.078-1.77A7.292 7.292 0 0127.236 31c0-2.087.917-4.085 2.515-5.483a159.68 159.68 0 011.99-1.697c3.904-3.298 10.439-8.818 10.439-12.8V7.266a2.419 2.419 0 00-2.41-2.422H7.23a2.419 2.419 0 00-2.41 2.422v3.754c0 3.982 6.535 9.502 10.44 12.8.711.6 1.383 1.168 1.989 1.697A7.296 7.296 0 0119.764 31a7.292 7.292 0 01-2.515 5.482c-.606.53-1.278 1.097-1.99 1.698-3.904 3.298-10.439 8.818-10.439 12.8v3.754a2.419 2.419 0 002.41 2.422h32.54a2.419 2.419 0 002.41-2.422 2.416 2.416 0 012.41-2.421A2.416 2.416 0 0147 54.734C47 58.741 43.756 62 39.77 62H7.23C3.245 62 0 58.741 0 54.734v-3.753c0-6.239 7.027-12.174 12.158-16.508.695-.588 1.352-1.143 1.927-1.644.546-.478.859-1.144.859-1.829s-.314-1.351-.86-1.828a150.317 150.317 0 00-1.926-1.645C7.027 23.193 0 17.258 0 11.02V7.266C0 3.259 3.244 0 7.23 0h32.54C43.755 0 47 3.259 47 7.266v3.754c0 6.238-7.027 12.173-12.158 16.507-.695.588-1.352 1.143-1.927 1.644-.545.478-.859 1.144-.859 1.829zm-10.92-8.57c-.043-.037-1.725-1.49-3.641-3.193-1.502-1.334-.577-3.857 1.413-3.857h9.425c1.99 0 2.915 2.523 1.413 3.857a379.774 379.774 0 01-3.642 3.194 3.75 3.75 0 01-4.967 0z"/></svg>