<svg xmlns="http://www.w3.org/2000/svg" width="64" height="64"><path fill="#fff" d="M24.5 32c0-2.293 2.44-11.084 4.055-16.65C20.827 16.949 15 23.808 15 32c0 9.374 7.626 17 17 17 9.352 0 16.963-7.59 17-16.934-.019-5.403-2.516-10.353-6.86-13.587a2.5 2.5 0 112.987-4.01 22.185 22.185 0 016.454 7.618 22.067 22.067 0 012.416 9.86c0 .018.003.035.003.053v.125l-.002.042C53.908 44.221 44.075 54 32 54c-12.13 0-22-9.869-22-22s9.87-22 22-22c.078 0 .156.004.233.012a2.4 2.4 0 01.226.032l.092.019c.044.01.087.021.13.033.03.009.061.017.091.027.047.015.093.033.139.05.028.011.055.021.082.033.061.027.12.055.18.086l.075.045c.04.022.079.045.117.07.025.016.05.034.074.051a1.938 1.938 0 01.175.135c.04.035.08.07.118.106.015.014.03.028.044.044.053.052.103.107.15.164l.02.026c.04.048.077.099.113.15l.043.068c.025.039.05.078.073.119l.046.085a2.608 2.608 0 01.096.209c.015.036.028.074.04.112.013.034.026.067.036.101l.002.007C35.593 15.794 39.5 29.1 39.5 32c0 4.136-3.364 7.5-7.5 7.5-4.135 0-7.5-3.364-7.5-7.5zm5 .001A2.503 2.503 0 0032 34.5c1.379 0 2.5-1.121 2.5-2.5-.01-1-1.096-5.362-2.502-10.454C30.584 26.662 29.51 30.983 29.5 32zM64 32c0 6.316-1.875 12.46-5.422 17.765a2.5 2.5 0 01-4.156-2.78C57.417 42.505 59 37.324 59 32 59 17.112 46.888 5 32 5S5 17.112 5 32s12.112 27 27 27c4.938 0 9.768-1.345 13.967-3.888a2.5 2.5 0 112.59 4.277A31.953 31.953 0 0132 64c-8.547 0-16.583-3.328-22.627-9.373C3.329 48.583 0 40.547 0 32c0-8.547 3.329-16.583 9.373-22.628C15.417 3.328 23.453 0 32 0c8.547 0 16.583 3.328 22.627 9.372C60.671 15.417 64 23.452 64 32z"/></svg>