<svg xmlns="http://www.w3.org/2000/svg" width="80" height="63"><path fill="#fff" d="M80 7.56v40.32a2.51 2.51 0 01-2.5 2.52H70a2.487 2.487 0 01-1.775-.756l-5-5.04 3.525-3.554 4.275 4.31H75V10.08h-3.975l-4.25 4.309a2.484 2.484 0 01-1.775.73h-5v17.64h-5V7.56a2.51 2.51 0 00-2.5-2.52h-45A2.51 2.51 0 005 7.56v40.32a2.51 2.51 0 002.5 2.52H10v5.04H7.5c-4.142 0-7.5-3.385-7.5-7.56V7.56C0 3.385 3.358 0 7.5 0h45C56.642 0 60 3.385 60 7.56v2.52h3.975l4.25-4.31A2.488 2.488 0 0170 5.04h7.5A2.51 2.51 0 0180 7.56zM45 25.2H15a2.51 2.51 0 01-2.5-2.52V12.6a2.51 2.51 0 012.5-2.52h30a2.51 2.51 0 012.5 2.52v10.08A2.51 2.51 0 0145 25.2zM32.5 50.4H35v5.04h-2.5V63h-5v-7.56H20a2.51 2.51 0 01-2.5-2.52V37.8h5v12.6h5V37.8h5zm15.85-2.344l8.6 10.861-3.9 3.15L44.8 51.66l-2.3 2.293V63h-5V37.8h5v9.047l8.225-8.316 3.55 3.578z"/></svg>