<svg xmlns="http://www.w3.org/2000/svg" width="879" height="879"><defs><clipPath id="a"><path fill="#fff" d="M439.5 0C682.23 0 879 196.77 879 439.5S682.23 879 439.5 879 0 682.23 0 439.5 196.77 0 439.5 0z"/></clipPath><clipPath id="b"><path fill="#fff" d="M440 183.969c141.402 0 256.031 114.629 256.031 256.031S581.402 696.031 440 696.031s-256.031-114.629-256.031-256.03c0-141.403 114.629-256.032 256.031-256.032z"/></clipPath></defs><path fill="none" stroke="#fff" stroke-miterlimit="20" stroke-width="8" d="M439.5 0C682.23 0 879 196.77 879 439.5S682.23 879 439.5 879 0 682.23 0 439.5 196.77 0 439.5 0z" clip-path="url(&quot;#a&quot;)" opacity=".3"/><path fill="none" stroke="#fff" stroke-miterlimit="20" stroke-width="8" d="M440 183.969c141.402 0 256.031 114.629 256.031 256.031S581.402 696.031 440 696.031s-256.031-114.629-256.031-256.03c0-141.403 114.629-256.032 256.031-256.032z" clip-path="url(&quot;#b&quot;)" opacity=".3"/><path fill="#fff" d="M439.5 320c65.998 0 119.5 53.502 119.5 119.5 0 65.998-53.502 119.5-119.5 119.5-65.998 0-119.5-53.502-119.5-119.5 0-65.998 53.502-119.5 119.5-119.5z"/><path d="M481.094 438.281l-60.806-41.9a2.108 2.108 0 00-2.166-.13 2.092 2.092 0 00-1.122 1.854v83.802a2.097 2.097 0 003.288 1.725l60.806-41.902a2.091 2.091 0 00.906-1.724 2.1 2.1 0 00-.906-1.724z"/></svg>